<svg width="1088" height="889" viewBox="0 0 1088 889" fill="none" xmlns="http://www.w3.org/2000/svg">
<path fill-rule="evenodd" clip-rule="evenodd" d="M63.569 635.002C61.6961 635.11 60.378 635.277 59.6149 635.505C55.5249 636.727 52.8812 638.425 51.2126 639.526C46.6645 642.526 44.057 647.427 42.8103 650.081C40.6856 654.605 40.5208 660.804 42.3161 668.678C43.5842 672.524 45.2317 675.54 47.2586 677.726C49.2855 679.912 53.3659 682.504 59.5 685.502C179.076 723.385 259.242 748.885 300 762.002C324.312 769.827 349.656 776.305 368.5 782.502C430.125 802.768 462.418 812.779 505.5 825.502C507.646 826.136 515.98 828.47 530.5 832.502L675 848.002L698 777.502L589.5 493.502L599 314.502L560.5 314.002C578.902 229.132 591.735 165.466 599 123.002C606.265 80.5391 605.317 74.7402 596.155 105.606C595.637 90.1917 594.085 79.6572 591.5 74.0024C587.773 65.8498 580.86 59.2576 576.5 54.0024C567.603 43.2797 552.243 33.5065 530.419 24.6828C513.791 20.9915 501.27 19.4837 492.856 20.1592C484.442 20.8347 471.921 24.3531 455.293 30.7144C452.986 29.374 423.99 50.8195 368.304 95.0507C312.618 139.282 191.517 234.766 5 381.502C-1.66667 393.836 -1.66667 403.336 5 410.002C15 420.002 18.753 419.111 26.5 417.002C28.1224 416.561 36.2891 411.894 51 403.002L135 346.502L129 383.002C129.182 387.513 130.349 390.679 132.5 392.502C134.651 394.326 138.318 395.326 143.5 395.502L194 368.502L293.672 410.198C290.746 418.241 289.022 424.509 288.5 429.002C287.978 433.496 288.645 436.329 290.5 437.502C290.576 437.084 307.076 440.417 340 447.502C353.463 450.4 379.831 456.155 419.103 464.77C421.133 478.246 422.932 485.157 424.5 485.502C433.258 487.434 446.888 507.927 476.5 503.002C477.791 502.788 481.625 495.121 488 480.002L495.327 582.599C492.823 589.012 491.047 593.48 490 596.002C488.953 598.525 486.453 600.858 482.5 603.002C476.772 606.997 471.272 609.497 466 610.502C464.145 610.856 462.016 611.889 459.834 612.243C457.155 612.677 452.542 613.18 445.995 613.75L227.5 582.502C221.446 580.308 216.113 582.059 211.5 587.755C206.887 593.452 207.387 600.534 213 609.002L254.5 635.002L143.333 609.234C137.073 608.229 132.295 610.407 129 615.769C126.838 619.286 125.9 623.053 127 627.002C127.384 628.383 128.545 630.503 130.483 633.361L172 660.502L69.5 635.002H63.569Z" fill="white"/>
<path fill-rule="evenodd" clip-rule="evenodd" d="M595.857 105.688H584C580.962 105.688 578.5 103.226 578.5 100.188V99.188C578.5 96.1504 580.962 93.688 584 93.688H594.283C594.512 87.0835 599.412 81.3695 606.183 80.3454C606.876 80.2406 607.576 80.188 608.277 80.188H613.255C620.612 80.188 626.713 85.8814 627.222 93.2203L629 118.883L597.899 119.188L595.857 105.688Z" fill="white"/>
<path fill-rule="evenodd" clip-rule="evenodd" d="M150 315.002C161.972 317.345 183.422 327.721 214.349 346.129C227.692 354.07 244.431 365.152 261.24 378.762C266.23 382.802 273.7 389.336 280.694 395.329C286.491 400.295 292.069 404.462 294.662 410.39C296.407 414.381 290.923 419.66 289.174 427.46C288.85 428.908 288.728 431.922 290.172 435.492C290.424 436.114 291.089 436.951 292.167 438.002C294.489 437.613 290.665 436.944 280.694 435.994C261.426 434.159 249.34 434.931 238.293 430.974C218.673 423.945 205.038 417.084 197.389 410.39L240.788 390.811C235.98 386.227 231.491 383.048 227.319 381.272C214.597 375.856 197.301 371.883 189.907 365.709C184.547 361.234 177.382 355.238 170.951 347.133C166.413 341.414 159.43 330.704 150 315.002Z" fill="#FFF8D7"/>
<path fill-rule="evenodd" clip-rule="evenodd" d="M412.482 128.758C412.3 127.46 412.211 126.127 412.211 124.779C412.211 119.934 413.7 114.982 416.376 111.533C419.759 107.173 424.967 104.91 430.656 104.91C437.235 104.91 443.01 108.621 446.275 114.206C446.166 113.293 446.11 112.347 446.11 111.368C446.11 108.303 446.201 105.335 447.3 102.728C450.232 95.767 457.144 91.0024 464.555 91.0024C469.264 91.0024 474.385 92.7328 477.645 95.9395C481.436 99.6695 483 105.32 483 111.368C483 118.367 480.73 124.365 475.86 128.03C472.903 130.256 468.403 131.733 464.555 131.733C461.24 131.733 457.723 129.721 455.035 128.03C452.502 126.438 450.428 124.418 448.919 121.977C449.039 122.892 449.101 123.828 449.101 124.779C449.101 128.842 448.663 132.47 446.721 135.617C443.416 140.97 437.071 144.648 430.656 144.648C426.188 144.648 421.352 143.28 418.161 140.433C416.822 139.239 415.721 137.808 414.847 136.207C414.677 139.348 413.153 142.353 410.518 144.34L384.191 164.193C382.428 165.523 379.92 165.171 378.589 163.408C378.339 163.076 378.142 162.707 378.006 162.315L374.936 153.501C373.801 150.242 374.629 146.622 377.068 144.181L377.262 143.986L374.605 143.182C371.909 142.366 369.751 140.335 368.772 137.694L366.262 130.916C365.495 128.844 366.552 126.543 368.624 125.776C369.015 125.631 369.426 125.548 369.843 125.53L402.591 124.14C406.508 123.974 410.174 125.752 412.482 128.758Z" fill="#341F16"/>
<path fill-rule="evenodd" clip-rule="evenodd" d="M928.724 392.198L1078.9 400.056C1084.13 400.33 1088.15 404.789 1087.87 410.017C1087.87 410.018 1087.87 410.018 1087.87 410.018C1087.6 415.247 1083.14 419.263 1077.91 418.99L772.816 403.04C770.61 402.925 768.915 401.044 769.03 398.837C769.03 398.837 769.03 398.837 769.03 398.837L769.35 392.746L769.002 382.79C768.925 380.583 770.652 378.73 772.86 378.653C772.86 378.653 772.86 378.653 772.86 378.653L1078.19 368.008C1083.42 367.825 1087.81 371.919 1087.99 377.152C1088.18 382.384 1084.08 386.774 1078.85 386.956C1078.85 386.956 1078.85 386.956 1078.85 386.956L928.724 392.198Z" fill="#341F16"/>
<path d="M548 73.2524H606C606.414 73.2524 606.75 73.5882 606.75 74.0024V99.0024C606.75 99.4167 606.414 99.7524 606 99.7524H548C542.063 99.7524 537.25 94.9395 537.25 89.0024V84.0024C537.25 78.0654 542.063 73.2524 548 73.2524ZM605.25 74.7524H548C542.891 74.7524 538.75 78.8938 538.75 84.0024V89.0024C538.75 94.1111 542.891 98.2524 548 98.2524H605.25V74.7524Z" fill="#341F16"/>
<path fill-rule="evenodd" clip-rule="evenodd" d="M771 372.843V410.091C771 456.302 733.539 493.763 687.328 493.763H594.866C576.645 494.733 561.087 480.748 560.118 462.526C559.777 456.132 561.302 449.777 564.507 444.234L569.587 435.446C547.299 437.257 545.132 424.126 563.087 396.056C581.041 367.985 591.634 340.634 594.866 314.002H712.159C744.656 314.002 771 340.346 771 372.843Z" fill="#B3E0CB"/>
<path fill-rule="evenodd" clip-rule="evenodd" d="M771 372.843V410.091C771 456.302 733.539 493.763 687.328 493.763H594.866C576.645 494.733 561.087 480.748 560.118 462.526C559.777 456.132 561.302 449.777 564.507 444.234L569.587 435.446C547.299 437.257 545.132 424.126 563.087 396.056C581.041 367.985 591.634 340.634 594.866 314.002H712.159C744.656 314.002 771 340.346 771 372.843Z" fill="#B3E0CB"/>
<path fill-rule="evenodd" clip-rule="evenodd" d="M412.482 128.758C412.3 127.46 412.211 126.127 412.211 124.779C412.211 119.934 413.7 114.982 416.376 111.533C419.759 107.173 424.967 104.91 430.656 104.91C437.235 104.91 443.01 108.621 446.275 114.206C446.166 113.293 446.11 112.347 446.11 111.368C446.11 108.303 446.201 105.335 447.3 102.728C450.232 95.767 457.144 91.0024 464.555 91.0024C469.264 91.0024 474.385 92.7328 477.645 95.9395C481.436 99.6695 483 105.32 483 111.368C483 118.367 480.73 124.365 475.86 128.03C472.903 130.256 468.403 131.733 464.555 131.733C461.24 131.733 457.723 129.721 455.035 128.03C452.502 126.438 450.428 124.418 448.919 121.977C449.039 122.892 449.101 123.828 449.101 124.779C449.101 128.842 448.663 132.47 446.721 135.617C443.416 140.97 437.071 144.648 430.656 144.648C426.188 144.648 421.352 143.28 418.161 140.433C416.822 139.239 415.721 137.808 414.847 136.207C414.677 139.348 413.153 142.353 410.518 144.34L384.191 164.193C382.428 165.523 379.92 165.171 378.589 163.408C378.339 163.076 378.142 162.707 378.006 162.315L374.936 153.501C373.801 150.242 374.629 146.622 377.068 144.181L377.262 143.986L374.605 143.182C371.909 142.366 369.751 140.335 368.772 137.694L366.262 130.916C365.495 128.844 366.552 126.543 368.624 125.776C369.015 125.631 369.426 125.548 369.843 125.53L402.591 124.14C406.508 123.974 410.174 125.752 412.482 128.758Z" fill="#341F16"/>
<path fill-rule="evenodd" clip-rule="evenodd" d="M150 315.002C161.972 317.345 183.422 327.721 214.349 346.129C227.692 354.07 244.431 365.152 261.24 378.762C266.23 382.802 273.7 389.336 280.694 395.329C286.491 400.295 292.069 404.462 294.662 410.39C296.407 414.381 290.923 419.66 289.174 427.46C288.85 428.908 288.728 431.922 290.172 435.492C290.424 436.114 291.089 436.951 292.167 438.002C294.489 437.613 290.665 436.944 280.694 435.994C261.426 434.159 249.34 434.931 238.293 430.974C218.673 423.945 205.038 417.084 197.389 410.39L240.788 390.811C235.98 386.227 231.491 383.048 227.319 381.272C214.597 375.856 197.301 371.883 189.907 365.709C184.547 361.234 177.382 355.238 170.951 347.133C166.413 341.414 159.43 330.704 150 315.002Z" fill="#B3E0CB"/>
<path fill-rule="evenodd" clip-rule="evenodd" d="M474.616 141.974C475.563 141.797 476.524 141.631 477.5 141.477L477.324 141.927L491.13 141.685C491.222 141.685 491.313 141.686 491.404 141.686C493.505 140.61 497.008 140.789 501.913 142.223C545.535 155.494 571.929 157.295 581.093 147.627C590.258 137.959 594.954 130.416 595.183 118.541L634 118.002C633.281 152.45 624.655 169.494 605.965 184.206C601.208 187.951 595.183 188.512 585.478 199.815C575.774 211.119 553.67 208.966 543.965 206.813C537.708 205.424 530.16 200.939 521.322 193.357V228.881H449.814L436.225 287.002H389.775C385.201 279.101 389.468 249.775 402.585 229.066C409.796 217.683 413.211 192.137 425.012 173.276C432.563 161.207 447.854 147.028 474.486 141.999L474.5 141.976L474.616 141.974Z" fill="#B3E0CB"/>
<mask id="mask0_3_4" style="mask-type:alpha" maskUnits="userSpaceOnUse" x="476" y="48" width="68" height="97">
<path d="M476 104.857V82.0024C476 63.2248 491.222 48.0024 510 48.0024C528.778 48.0024 544 63.2248 544 82.0024V105.518C544 115.459 535.941 123.518 526 123.518C525.004 123.518 524.01 123.436 523.028 123.271C512.745 121.55 505.706 120.648 501.913 120.565L502 141.817C497.651 143.456 493.317 144.456 489 144.817C484.683 145.178 480.349 144.311 476 142.218V104.857Z" fill="white"/>
</mask>
<g mask="url(#mask0_3_4)">
<path d="M476 104.857V82.0024C476 63.2248 491.222 48.0024 510 48.0024C528.778 48.0024 544 63.2248 544 82.0024V105.518C544 115.459 535.941 123.518 526 123.518C525.004 123.518 524.01 123.436 523.028 123.271C512.745 121.55 505.706 120.648 501.913 120.565L502 141.817C497.651 143.456 493.317 144.456 489 144.817C484.683 145.178 480.349 144.311 476 142.218V104.857Z" fill="white"/>
</g>
<mask id="mask1_3_4" style="mask-type:alpha" maskUnits="userSpaceOnUse" x="475" y="48" width="73" height="98">
<path d="M476 127.242L475.153 82.4963C474.799 63.8031 489.666 48.3624 508.359 48.0085C508.573 48.0045 508.787 48.0024 509 48.0024H510.267C530.612 48.0024 547.105 64.4956 547.105 84.841C547.105 85.7691 547.07 86.6969 547 87.6224L545.509 107.315C544.759 117.228 536.114 124.655 526.201 123.904C525.643 123.862 525.087 123.794 524.536 123.7C513.43 121.807 505.889 120.817 501.913 120.73L502 142.002C497.651 143.641 493.318 144.641 489 145.002C484.683 145.363 480.349 144.497 476 142.403V127.242Z" fill="white"/>
</mask>
<g mask="url(#mask1_3_4)">
<path d="M476 127.242L475.153 82.4963C474.799 63.8031 489.666 48.3624 508.359 48.0085C508.573 48.0045 508.787 48.0024 509 48.0024H510.267C530.612 48.0024 547.105 64.4956 547.105 84.841C547.105 85.7691 547.07 86.6969 547 87.6224L545.509 107.315C544.759 117.228 536.114 124.655 526.201 123.904C525.643 123.862 525.087 123.794 524.536 123.7C513.43 121.807 505.889 120.817 501.913 120.73L502 142.002C497.651 143.641 493.318 144.641 489 145.002C484.683 145.363 480.349 144.497 476 142.403V127.242Z" fill="white"/>
<path fill-rule="evenodd" clip-rule="evenodd" d="M475.721 106.188C486.037 106.188 495.791 101.488 502.22 93.4201L535.581 51.5522L544.651 64.4661L551 37.6449L473 31.188L475.721 106.188Z" fill="#341F16"/>
</g>
<path d="M476.393 127.677L476 82.8609C476.08 79.7938 476.246 77.4533 476.499 75.8393C476.568 75.3987 476.741 74.3805 477.021 72.7847C479.546 58.3429 492.089 47.8588 506.668 48.0039L513.465 48.0716C525.994 48.1964 537.019 56.4213 540.773 68.4447C542.496 73.9654 543.512 79.2723 543.819 84.3655C544.253 91.5703 543.907 99.8443 542.782 109.187C541.726 117.961 533.816 124.225 525.088 123.199L501.931 120.476V129.002" stroke="#341F16" stroke-width="1.5" stroke-linecap="round" stroke-linejoin="round"/>
<path fill-rule="evenodd" clip-rule="evenodd" d="M546.735 73.0024H608V100.002H546.735C542.64 100.002 539.062 97.2387 538.027 93.2772C537.342 90.6561 537 88.3979 537 86.5024C537 84.607 537.342 82.3487 538.027 79.7277C539.062 75.7662 542.64 73.0024 546.735 73.0024Z" fill="white"/>
<path d="M546.707 73.0024H608V100.002H546.707C542.63 100.002 539.066 97.2476 538.032 93.2969C537.344 90.6675 537 88.4027 537 86.5024C537 84.6022 537.344 82.3374 538.032 79.7079C539.066 75.7573 542.63 73.0024 546.707 73.0024ZM546.707 74.4997C543.31 74.4997 540.34 76.7954 539.478 80.0876C538.82 82.6019 538.495 84.7436 538.495 86.5024C538.495 88.2613 538.82 90.403 539.478 92.9173C540.34 96.2094 543.31 98.5052 546.707 98.5052H606.505V74.4997H546.707Z" fill="#341F16"/>
<path fill-rule="evenodd" clip-rule="evenodd" d="M501.221 142.111L496.901 143.017L497.471 128.422H510L501.221 142.111ZM496.655 143.225C489.297 143.972 484.54 144.181 482.386 143.851C480.231 143.521 477.711 142.513 474.824 140.828L472 128.002L493.891 128.741L496.655 143.225Z" fill="#B3E0CB"/>
<path fill-rule="evenodd" clip-rule="evenodd" d="M473.264 34.8307C468.664 34.9684 465.029 34.802 462.36 34.3315C459.691 33.8611 457.238 32.7513 455 31.0024C464.718 27.1858 472.218 24.6858 477.5 23.5024C489.972 20.7084 500.249 19.6218 504.729 19.832C521.095 20.6 534.907 25.3831 547.374 31.5157C553.274 34.4177 561.623 40.5731 572.42 49.9819C566.488 50.0099 562.181 49.8501 559.5 49.5024C554.437 48.8458 549.959 47.0597 545.5 46.5024C537.164 45.4603 531.189 47.9817 526.639 46.4673C521.989 44.9197 518.269 42.4583 514.969 41.9877C506.337 40.7569 501.24 41.0176 494.381 39.8126C489.64 38.9796 482.601 37.3189 473.264 34.8307ZM526 832.002C527.905 829.407 529.239 827.573 530 826.502C533.463 821.632 535.896 818.432 538 816.502C545.45 809.672 557.54 814.73 564.5 809.502C569.848 805.485 573.378 801.048 578 797.002C582.018 793.486 586.951 794.021 592 794.002C598.597 793.978 605.342 793.847 610 791.002C616.032 787.318 621.875 781.489 627.5 780.502C635.931 779.024 643.191 782.34 650 781.002C657.859 779.458 663.491 774.138 669.5 772.002C673.97 770.414 678.164 770.576 686 773.002C688.246 773.698 692.413 775.031 698.5 777.002C700.265 783.832 701.265 789.166 701.5 793.002C701.719 796.578 701.82 800.01 701.5 804.002C699.5 829.002 688.432 840.194 674 850.502C669.343 853.829 665.329 854.317 662.5 855.502C657.831 857.46 655.262 859.129 646.5 860.002C644.614 860.19 640.924 860.266 638.5 860.502C630.752 861.258 615.326 855.378 587.5 848.002C573.329 844.246 552.829 838.913 526 832.002Z" fill="#B3E0CB"/>
<path fill-rule="evenodd" clip-rule="evenodd" d="M423.095 484.002L411.881 506.012C410.878 507.98 411.661 510.389 413.629 511.392C413.671 511.413 413.713 511.433 413.756 511.453L424.931 516.661C426.865 517.562 429.166 516.786 430.16 514.898L433 509.502L434.64 517.721C435.413 521.599 437.791 524.968 441.184 526.998L471.421 545.078C474.739 547.063 479.037 545.981 481.022 542.663C481.762 541.425 482.102 539.988 481.994 538.549L479.238 501.695" fill="#341F16"/>
<path fill-rule="evenodd" clip-rule="evenodd" d="M616.552 66.0024H703.755L704 107.002L616.627 106.53C611.235 106.501 606.42 103.146 604.526 98.097C602.842 93.6089 602 89.8204 602 86.7316C602 83.6978 602.704 79.862 604.113 75.2242C605.777 69.7469 610.828 66.0024 616.552 66.0024Z" fill="white"/>
<path d="M616.75 66.0024H704.25C704.664 66.0024 705 66.3424 705 66.7617V106.243C705 106.663 704.664 107.002 704.25 107.002H616.75C608.604 107.002 602 100.317 602 92.0703V80.9345C602 72.6878 608.604 66.0024 616.75 66.0024ZM703.5 67.521H616.75C609.432 67.521 603.5 73.5264 603.5 80.9345V92.0703C603.5 99.4785 609.432 105.484 616.75 105.484H703.5V67.521Z" fill="#341F16"/>
<path fill-rule="evenodd" clip-rule="evenodd" d="M714.011 61.8062L718.6 61.1496L798 61.0024V111.855L717.213 111.991C712.988 111.998 708.931 110.334 705.928 107.36C702.562 104.027 700.813 102.25 700.682 102.031C696.509 95.067 698.451 90.5644 698.451 86.4289C698.451 82.7029 699.315 78.1469 701.041 72.7607C702.911 66.9275 707.947 62.6739 714.011 61.8062Z" fill="white"/>
<path d="M721 346.002H696C681.641 346.002 670 357.643 670 372.002V376.002C670 390.362 681.641 402.002 696 402.002H721C735.359 402.002 747 390.362 747 376.002V372.002C747 357.643 735.359 346.002 721 346.002Z" fill="white"/>
<mask id="mask2_3_4" style="mask-type:alpha" maskUnits="userSpaceOnUse" x="670" y="346" width="77" height="57">
<path d="M721 346.002H696C681.641 346.002 670 357.643 670 372.002V376.002C670 390.362 681.641 402.002 696 402.002H721C735.359 402.002 747 390.362 747 376.002V372.002C747 357.643 735.359 346.002 721 346.002Z" fill="white"/>
</mask>
<g mask="url(#mask2_3_4)">
<path d="M706 353.502C706 346.047 699.956 340.002 692.5 340.002C685.044 340.002 679 346.047 679 353.502V363.502C679 370.958 685.044 377.002 692.5 377.002C699.956 377.002 706 370.958 706 363.502V353.502Z" fill="#341F16"/>
</g>
<path d="M514.239 88.2576C514.481 87.917 514.956 87.834 515.302 88.0723C518.716 90.4292 521.749 90.5536 524.579 88.4769C524.917 88.2288 525.394 88.2981 525.646 88.6316C525.897 88.9651 525.827 89.4366 525.489 89.6847C522.114 92.1616 518.367 92.0255 514.427 89.3057C514.082 89.0674 513.998 88.5982 514.239 88.2576ZM526.894 106.586C526.706 106.214 526.858 105.762 527.235 105.577C528.702 104.853 530.511 104.494 532.661 104.494C534.844 104.494 536.505 104.863 537.66 105.623C538.011 105.854 538.105 106.321 537.872 106.667C537.638 107.013 537.164 107.106 536.814 106.876C535.936 106.299 534.544 105.999 532.661 105.999C530.743 105.999 529.161 106.309 527.917 106.923C527.54 107.109 527.082 106.958 526.894 106.586ZM533.951 89.0427C533.204 85.8497 531.312 83.0307 528.625 81.1046C522.468 76.6916 513.852 78.039 509.38 84.114C509.132 84.4503 508.655 84.5248 508.315 84.2806C507.974 84.0363 507.898 83.5656 508.146 83.2293C513.113 76.4817 522.683 74.9852 529.521 79.8868C532.506 82.0261 534.607 85.1572 535.438 88.7037L537.98 99.5577C538.091 100.029 537.728 100.48 537.237 100.48H531.864C531.443 100.48 531.102 100.143 531.102 99.7271C531.102 99.3115 531.443 98.9745 531.864 98.9745H536.278L533.951 89.0427Z" fill="#341F16"/>
<path d="M718.882 60.0024H779.245C779.662 60.0024 780 60.3414 780 60.7596V112.245C780 112.663 779.662 113.002 779.245 113.002H718.882C706.797 113.002 697 103.172 697 91.0453V81.9596C697 69.833 706.797 60.0024 718.882 60.0024ZM778.491 61.5167H718.882C707.63 61.5167 698.509 70.6693 698.509 81.9596V91.0453C698.509 102.336 707.63 111.488 718.882 111.488H778.491V61.5167Z" fill="#341F16"/>
<path fill-rule="evenodd" clip-rule="evenodd" d="M618.5 60.208C619.37 58.3161 621.281 57.0024 623.5 57.0024H624.5C627.538 57.0024 630 59.4649 630 62.5024V75.5024C630 78.54 627.538 81.0024 624.5 81.0024H623.5C621.066 81.0024 619.001 79.4214 618.277 77.2304C617.329 78.8865 615.545 80.0024 613.5 80.0024C610.462 80.0024 608 77.54 608 74.5024V62.5024C608 59.4649 610.462 57.0024 613.5 57.0024C615.719 57.0024 617.63 58.3161 618.5 60.208ZM597.5 63.0024C600.538 63.0024 603 65.4649 603 68.5024V81.5024C603 84.54 600.538 87.0024 597.5 87.0024C594.462 87.0024 592 84.54 592 81.5024V68.5024C592 65.4649 594.462 63.0024 597.5 63.0024Z" fill="white"/>
<path d="M466.41 506.422C466.032 506.226 465.89 505.769 466.092 505.401C466.294 505.034 466.764 504.895 467.142 505.092L479.555 511.547C479.933 511.743 480.076 512.2 479.874 512.568C479.672 512.935 479.202 513.074 478.824 512.877L466.41 506.422ZM466.433 512.469C466.048 512.285 465.891 511.833 466.08 511.459C466.27 511.085 466.735 510.932 467.119 511.116L480.567 517.571C480.952 517.756 481.109 518.208 480.92 518.582C480.73 518.955 480.265 519.109 479.881 518.924L466.433 512.469Z" fill="white"/>
<path d="M562.766 315.002L562.735 315.152C562.652 315.558 562.256 315.82 561.85 315.737C561.494 315.665 561.249 315.351 561.25 315.002H521.722C521.308 315.002 520.972 314.666 520.972 314.252C520.972 313.838 521.308 313.502 521.722 313.502H561.54L584.265 201.853C584.348 201.447 584.744 201.185 585.15 201.268C585.555 201.35 585.818 201.746 585.735 202.152L563.071 313.502H594.715C594.725 313.502 594.735 313.502 594.745 313.502H711.243C744.798 313.502 772 340.688 772 374.224V408.208C772 455.544 733.604 493.918 686.241 493.918H591.817L698.943 775.77L698.985 775.935L701.099 791.316C705.712 824.877 682.228 855.822 648.647 860.432C644.014 861.068 639.323 861.173 634.666 860.744L634.545 860.723L525.574 832.246C525.542 832.239 525.511 832.231 525.48 832.22L59.4453 684.794L59.3372 684.75L55.363 682.772C42.5551 676.396 37.3437 660.851 43.7232 648.05C48.5658 638.334 58.9588 632.667 69.755 633.857L69.8538 633.875L167.71 658.206L132.481 636.424C125.083 631.85 122.796 622.148 127.372 614.754C130.941 608.99 137.8 606.155 144.399 607.718L250.31 632.794L215.801 611.635C207.915 606.799 205.445 596.49 210.283 588.609C213.759 582.945 220.258 579.873 226.844 580.778L245.798 583.384L446.267 611.863H456.807C474.867 611.863 490.6 599.568 494.963 582.063L487.471 480.73C487.44 480.317 487.75 479.957 488.164 479.927C488.577 479.896 488.936 480.206 488.967 480.619L496.468 582.072C496.473 582.15 496.467 582.229 496.448 582.306C491.961 600.543 475.597 613.362 456.807 613.362H446.214L446.109 613.355L245.59 584.869L226.64 582.263C220.644 581.439 214.727 584.237 211.561 589.393C207.157 596.568 209.406 605.954 216.586 610.357L255.085 633.964C255.812 634.409 255.35 635.528 254.52 635.332L144.053 609.177C138.082 607.763 131.876 610.328 128.648 615.543C124.507 622.233 126.577 631.011 133.27 635.149L172.579 659.453C173.307 659.903 172.834 661.025 172.003 660.818L69.5409 635.342C59.3876 634.244 49.6208 639.579 45.066 648.719C39.0559 660.778 43.9655 675.424 56.0319 681.43L59.9537 683.382L525.434 830.634L532.699 820.685C536.596 815.347 542.544 811.874 549.111 811.102L557.393 810.128C561.898 809.599 566.071 807.497 569.176 804.193L574.942 798.058C578.109 794.689 582.527 792.779 587.152 792.779H600.917C604.835 792.779 608.635 791.446 611.694 789L617.577 784.297C622.018 780.747 627.672 779.075 633.331 779.641L641.816 780.489C646.824 780.989 651.854 779.778 656.084 777.054L661.607 773.497C668.256 769.214 676.506 768.223 683.981 770.809L697.19 775.379L590.195 493.871C584.559 493.299 579.147 491.353 574.437 488.199C558.564 477.574 554.315 456.1 564.947 440.236L567.519 436.398C563.919 437.055 560.176 436.381 557.008 434.46C549.902 430.15 547.637 420.899 551.949 413.797C566.799 389.338 576.002 373.037 579.541 364.928C584.42 353.753 589.178 337.106 593.808 315.002H562.766ZM180.884 313.003C180.93 312.842 181.029 312.696 181.177 312.593L251.702 263.612C252.042 263.376 252.51 263.46 252.746 263.8C252.983 264.14 252.899 264.607 252.558 264.844L183.217 313.003H264.849L354.768 256.596C355.118 256.376 355.582 256.481 355.802 256.832C356.022 257.183 355.917 257.646 355.565 257.866L267.671 313.003H448.714C449.129 313.003 449.465 313.338 449.465 313.752C449.465 314.166 449.129 314.502 448.714 314.502H150.977C154.488 320.609 157.353 325.426 159.57 328.953C159.818 328.944 160.065 329.058 160.216 329.278C160.378 329.514 160.387 329.811 160.263 330.048C168.973 343.745 176.472 353.145 186.666 361.654C190.892 365.182 196.668 368.13 205.015 371.384C206.702 372.042 218.025 376.206 220.814 377.369C222.22 377.955 223.445 378.509 224.527 379.052C230.373 381.988 235.908 385.34 241.131 389.109C241.593 389.442 241.529 390.149 241.014 390.394L200.208 409.814C212.949 418.193 224.535 424.422 234.964 428.5C236.455 429.083 237.945 429.585 239.461 430.018C244.713 431.516 249.436 432.109 259.289 432.761C260.041 432.811 262.722 432.985 262.875 432.995C264.361 433.092 265.536 433.172 266.712 433.255C269.744 433.468 272.479 433.688 275.265 433.949C278.488 434.252 284.169 435.086 292.359 436.463L419.373 464.45C419.777 464.539 420.033 464.939 419.944 465.343C419.855 465.747 419.454 466.003 419.05 465.914L292.073 437.934C283.955 436.571 278.301 435.74 275.125 435.442C272.352 435.182 269.628 434.963 266.607 434.75C265.433 434.667 264.26 434.588 262.777 434.491C262.625 434.481 259.943 434.307 259.19 434.257C249.236 433.599 244.433 432.995 239.049 431.459C237.487 431.014 235.953 430.497 234.418 429.896C223.579 425.658 211.532 419.136 198.272 410.332C197.786 410.01 197.838 409.281 198.364 409.031L239.219 389.587C234.366 386.164 229.244 383.099 223.853 380.391C222.806 379.866 221.612 379.326 220.236 378.752C217.482 377.604 206.183 373.449 204.47 372.781C200.932 371.401 197.844 370.074 195.128 368.73C195.074 368.781 195.012 368.825 194.942 368.86C173.046 379.658 157.392 387.979 147.989 393.814C141.947 397.565 134.006 395.71 130.253 389.672C128.565 386.956 127.949 383.708 128.525 380.563L134.533 347.794L33.9746 414.359C24.3542 420.728 11.4399 418.548 4.44627 409.376C-2.53329 400.222 -1.15449 387.217 7.58957 379.727L13.5805 374.597L118.841 291.328L409.744 61.2015L437.602 40.8963C447.367 33.7791 458.333 28.475 469.977 25.2374L481.26 22.1001C500.029 16.8813 520.025 18.2881 537.877 26.0832L543.325 28.462C560.904 36.1382 575.926 48.6688 586.626 64.5813L591.872 72.3848C592.104 72.7284 592.012 73.1942 591.668 73.4252C591.324 73.6561 590.858 73.5646 590.627 73.221L585.38 65.4175C581.756 60.0274 577.628 55.0313 573.068 50.488C572.986 50.5272 572.896 50.5522 572.8 50.5594C567.379 50.9684 563.328 50.9684 560.625 50.5528C558.594 50.2406 555.426 49.4015 551.103 48.0338C548.059 47.0712 544.866 46.671 541.679 46.853L536.005 47.177C531.461 47.4365 526.922 46.5752 522.789 44.669L521.694 44.1642C517.981 42.4519 513.941 41.5651 509.852 41.5651H501.398C496.228 41.5651 491.1 40.6281 486.264 38.7997L481.805 37.1138C477.744 35.5784 473.446 34.764 469.104 34.7074C467.873 34.6913 466.722 34.6442 465.651 34.5658C462.964 34.3694 459.274 33.8666 454.574 33.0575C454.384 33.0247 454.222 32.9229 454.112 32.7821C448.64 35.4008 443.408 38.5205 438.486 42.1077L410.652 62.395L119.772 292.503L14.5345 375.754L8.5661 380.866C0.425795 387.838 -0.857804 399.945 5.63984 408.467C12.1545 417.011 24.1844 419.041 33.1459 413.109L135.169 345.574L158.271 329.704C155.912 325.95 152.834 320.761 149.037 314.136C149.002 314.077 148.975 314.013 148.957 313.945C148.956 313.943 148.956 313.941 148.955 313.94C148.94 313.88 148.931 313.817 148.931 313.752C148.931 313.727 148.933 313.701 148.935 313.676C148.946 313.571 148.979 313.468 149.032 313.376C149.086 313.284 149.159 313.205 149.245 313.143C149.265 313.128 149.286 313.114 149.309 313.102C149.361 313.072 149.416 313.049 149.471 313.032C149.477 313.031 149.483 313.029 149.489 313.028C149.557 313.009 149.626 313.001 149.695 313.003H180.884ZM193.501 367.899C190.439 366.283 187.884 364.624 185.705 362.805C175.398 354.202 167.827 344.723 159.073 330.972L136.271 346.637L130.001 380.833C129.492 383.612 130.036 386.481 131.528 388.881C134.844 394.216 141.859 395.854 147.197 392.541C156.539 386.743 171.97 378.531 193.501 367.899ZM590.763 492.419H686.241C732.776 492.419 770.5 454.716 770.5 408.208V374.224C770.5 341.516 743.97 315.002 711.243 315.002H595.34C590.672 337.351 585.866 354.189 580.916 365.528C577.34 373.72 568.117 390.057 553.231 414.575C549.349 420.969 551.388 429.298 557.786 433.178C561.156 435.221 565.248 435.698 568.996 434.482C569.673 434.263 570.247 435.022 569.851 435.613L566.193 441.07C556.022 456.246 560.087 476.789 575.271 486.954C579.894 490.048 585.222 491.928 590.763 492.419V492.419ZM697.634 777.119L683.49 772.226C676.45 769.791 668.681 770.724 662.419 774.757L656.897 778.314C652.381 781.222 647.012 782.515 641.667 781.981L633.181 781.133C627.913 780.606 622.649 782.162 618.515 785.467L612.631 790.171C609.306 792.83 605.175 794.278 600.917 794.278H587.152C582.941 794.278 578.918 796.018 576.036 799.085L570.269 805.219C566.922 808.781 562.424 811.046 557.569 811.617L549.286 812.591C543.134 813.314 537.562 816.568 533.911 821.569L526.978 831.064L634.865 859.257C639.388 859.668 643.943 859.564 648.443 858.946C681.203 854.449 704.113 824.261 699.613 791.52L697.634 777.119ZM571.684 49.1363C563.283 41.0869 553.49 34.5373 542.724 29.836L537.276 27.4571C519.74 19.8001 500.099 18.4183 481.662 23.5447L470.379 26.6819C465.52 28.033 460.781 29.7494 456.201 31.8121C460.207 32.478 463.395 32.8975 465.76 33.0704C466.8 33.1465 467.922 33.1924 469.124 33.2081C473.64 33.267 478.112 34.1142 482.336 35.7114L486.795 37.3973C491.461 39.1616 496.409 40.0657 501.398 40.0657H509.852C514.158 40.0657 518.413 40.9995 522.323 42.8028L523.417 43.3076C527.327 45.1108 531.621 45.9255 535.92 45.68L541.594 45.356C544.963 45.1636 548.338 45.5866 551.555 46.6043C555.811 47.9504 558.917 48.7732 560.853 49.0709C563.255 49.4402 566.871 49.4638 571.684 49.1363Z" fill="#341F16"/>
<path d="M151.423 314.433C151.05 314.251 150.894 313.8 151.076 313.426C151.257 313.052 151.707 312.897 152.08 313.078C188.142 330.655 214.546 344.891 231.301 355.795C246.145 365.454 265.937 380.62 290.685 401.297C296.203 405.907 297.613 413.827 294.026 420.066C292.182 423.272 291.089 426.03 290.74 428.327C290.099 432.536 290.997 435.236 293.375 436.595C293.735 436.801 293.861 437.261 293.655 437.622C293.449 437.984 292.991 438.109 292.63 437.903C289.634 436.191 288.529 432.867 289.254 428.1C289.636 425.594 290.795 422.669 292.724 419.314C295.946 413.71 294.679 406.595 289.722 402.454C265.016 381.812 245.267 366.679 230.483 357.058C213.79 346.195 187.434 331.984 151.423 314.433ZM241.183 390.276C240.788 390.15 240.569 389.727 240.695 389.33C240.821 388.934 241.243 388.715 241.639 388.841L263.678 395.869C264.073 395.995 264.292 396.419 264.166 396.815C264.04 397.211 263.618 397.43 263.222 397.304L241.183 390.276ZM172.565 661.218C172.163 661.114 171.921 660.702 172.024 660.297C172.126 659.893 172.534 659.648 172.936 659.752L288.436 689.513C288.837 689.616 289.079 690.028 288.977 690.433C288.874 690.838 288.466 691.082 288.064 690.979L172.565 661.218ZM255.084 635.497C254.68 635.405 254.427 635 254.519 634.592C254.61 634.185 255.012 633.929 255.416 634.021L414.415 670.34C414.819 670.432 415.073 670.837 414.981 671.245C414.89 671.652 414.488 671.908 414.084 671.816L255.084 635.497Z" fill="#341F16"/>
<path d="M695.43 345.033H720.57C735.426 345.033 747.469 357.099 747.469 371.984V376.014C747.469 390.898 735.426 402.965 720.57 402.965H695.43C680.574 402.965 668.531 390.898 668.531 376.014V371.984C668.531 357.099 680.574 345.033 695.43 345.033ZM695.43 346.544C681.407 346.544 670.039 357.934 670.039 371.984V376.014C670.039 390.064 681.407 401.454 695.43 401.454H720.57C734.593 401.454 745.961 390.064 745.961 376.014V371.984C745.961 357.934 734.593 346.544 720.57 346.544H695.43ZM693.922 341.002H722.078C739.156 341.002 753 354.873 753 371.984V377.021C753 394.132 739.156 408.002 722.078 408.002H693.922C676.844 408.002 663 394.132 663 377.021V371.984C663 354.873 676.844 341.002 693.922 341.002ZM693.922 342.514C677.677 342.514 664.508 355.708 664.508 371.984V377.021C664.508 393.297 677.677 406.491 693.922 406.491H722.078C738.323 406.491 751.492 393.297 751.492 377.021V371.984C751.492 355.708 738.323 342.514 722.078 342.514H693.922Z" fill="#341F16"/>
<path d="M436.308 290.599L433.274 314.005C433.226 314.382 432.903 314.663 432.523 314.66L374.926 314.159C374.762 314.158 374.604 314.103 374.474 314.003C372.914 312.803 372 310.947 372 308.978C372 305.477 374.838 302.638 378.339 302.638H401.071L411.367 286.948C411.594 286.601 412.06 286.505 412.407 286.732C412.754 286.96 412.851 287.426 412.623 287.773L402.105 303.802C401.966 304.013 401.73 304.141 401.477 304.141H378.339C375.668 304.141 373.503 306.307 373.503 308.978C373.503 310.398 374.126 311.743 375.201 312.659L431.87 313.152L435.29 286.763C435.344 286.351 435.72 286.061 436.132 286.114C436.543 286.168 436.834 286.545 436.78 286.956L436.756 287.146C439.039 294.168 440.868 299.322 442.238 302.599C443.578 305.804 446.029 309.235 449.629 312.92C452.42 316.193 454.31 320.317 455.303 325.282C456.291 330.221 456.291 335.491 455.304 341.1C451.394 361.414 448.051 376.46 445.272 386.245C442.493 396.033 437.81 409.246 431.218 425.904C424.817 441.042 421.162 452.176 420.253 459.268C419.36 466.232 420.473 474.349 423.603 483.618L478.687 501.326L524.969 393.331L528.387 382.3C533.269 366.542 532.848 349.617 527.189 334.122L505.448 274.595C505.269 274.104 505.632 273.585 506.154 273.585H513.667C514.081 273.585 514.418 273.922 514.418 274.337C514.418 274.752 514.081 275.088 513.667 275.088H507.228L528.6 333.606C534.372 349.411 534.802 366.672 529.822 382.744L526.377 393.849L479.799 502.547C479.646 502.903 479.247 503.085 478.878 502.966L422.783 484.934C422.558 484.861 422.379 484.686 422.303 484.461C419.011 474.841 417.826 466.38 418.762 459.077C419.693 451.814 423.384 440.574 429.828 425.335C436.396 408.735 441.063 395.566 443.827 385.835C446.592 376.1 449.927 361.091 453.827 340.828C454.78 335.409 454.78 330.327 453.83 325.577C452.885 320.853 451.103 316.964 448.52 313.933C444.831 310.16 442.273 306.579 440.852 303.179C439.666 300.343 438.152 296.152 436.308 290.599ZM562.927 313.586C563.105 313.96 562.946 314.409 562.572 314.587C562.197 314.765 561.749 314.607 561.57 314.232L521.002 229.077C520.823 228.703 520.982 228.254 521.357 228.076C521.731 227.897 522.18 228.056 522.358 228.431L562.927 313.586ZM465.342 229.149C465.401 228.738 465.782 228.452 466.192 228.511C466.603 228.57 466.889 228.95 466.83 229.361L463.949 249.53C462.581 259.107 453.71 265.761 444.135 264.393C443.539 264.308 442.948 264.192 442.364 264.046C441.962 263.945 441.717 263.537 441.818 263.135C441.918 262.732 442.326 262.487 442.729 262.588C443.262 262.721 443.803 262.827 444.347 262.905C453.101 264.156 461.211 258.072 462.461 249.318L465.342 229.149ZM459.834 229.143C459.895 228.733 460.278 228.45 460.688 228.512C461.099 228.573 461.381 228.956 461.32 229.366L458.62 247.368C457.576 254.328 451.089 259.123 444.13 258.079C444.062 258.069 443.993 258.058 443.925 258.047C443.516 257.979 443.24 257.592 443.308 257.182C443.376 256.773 443.763 256.497 444.172 256.565C444.232 256.575 444.293 256.584 444.353 256.593C450.491 257.514 456.213 253.284 457.134 247.145L459.834 229.143ZM431.784 313.812L432.536 313.157L431.87 313.152L431.784 313.812Z" fill="#341F16"/>
<path d="M501.045 143.126C500.065 143.641 498.949 144.057 497.698 144.376V165.394C497.698 165.809 497.362 166.146 496.949 166.146C496.535 166.146 496.2 165.809 496.2 165.394V144.7C493.732 145.146 490.806 145.272 487.421 145.083C481.584 144.758 477.567 143.805 475.334 142.163L459.952 147.204C440.285 153.65 424.882 169.169 418.526 188.943L409.035 218.47C408.528 220.048 407.902 221.585 407.164 223.068L395.69 246.116C389.466 258.62 387.874 272.933 391.187 286.498H435.445L458.774 187.786C458.87 187.382 459.273 187.132 459.676 187.228C460.078 187.324 460.327 187.729 460.232 188.134L450.732 228.328H520.654L520.165 192.985C520.156 192.341 520.905 191.984 521.396 192.398C527.411 197.471 532.529 201.119 536.74 203.341C540.915 205.544 545.476 207.02 550.427 207.768H564.691C573.482 207.768 581.863 204.032 587.762 197.484C592.821 191.868 598.767 187.127 605.361 183.453C612.369 179.547 618.287 173.407 623.117 165.017C629.575 153.801 633.038 138.298 633.486 118.507H595.438C594.285 125.141 593.317 129.641 592.522 132.034C587.948 145.817 574.828 154.884 560.375 154.248C554.622 153.995 549.249 153.445 544.255 152.596C534.332 150.909 519.931 147.753 501.045 143.126ZM502.159 141.85C520.64 146.368 534.757 149.456 544.505 151.113C549.435 151.951 554.747 152.495 560.441 152.745C574.225 153.352 586.738 144.704 591.101 131.558C591.889 129.184 592.882 124.531 594.07 117.627C594.132 117.266 594.443 117.002 594.807 117.002H634.251C634.67 117.002 635.007 117.348 635 117.769C634.619 138.16 631.098 154.161 624.414 165.77C619.454 174.386 613.345 180.723 606.087 184.768C599.638 188.362 593.822 193 588.872 198.494C582.69 205.357 573.906 209.272 564.691 209.272H550.372L550.261 209.264C545.125 208.494 540.384 206.963 536.044 204.673C532.023 202.551 527.24 199.193 521.686 194.597L522.162 229.07C522.168 229.489 521.831 229.832 521.413 229.832H450.516C450.469 229.832 450.424 229.828 450.379 229.82L436.765 287.424C436.685 287.763 436.384 288.002 436.037 288.002H390.602C390.26 288.002 389.962 287.77 389.877 287.437C386.29 273.354 387.878 258.445 394.351 245.443L405.824 222.396C406.529 220.98 407.126 219.514 407.61 218.008L417.1 188.481C423.604 168.248 439.364 152.369 459.488 145.774L474.555 140.836L470.767 127.998C470.621 127.502 471.005 127.01 471.519 127.033L493.986 128.035C494.332 128.051 494.623 128.303 494.688 128.644L496.415 137.606L496.7 128.763C496.713 128.357 497.044 128.035 497.448 128.035H509.93C510.528 128.035 510.885 128.704 510.553 129.204L502.159 141.85ZM500.422 141.755L508.531 129.539H498.173L497.747 142.806C498.75 142.524 499.641 142.173 500.422 141.755ZM493.33 129.512L472.502 128.582L476.131 140.883C478.033 142.343 481.837 143.265 487.504 143.581C490.798 143.765 493.621 143.641 495.97 143.213L493.33 129.512Z" fill="#341F16"/>
<path fill-rule="evenodd" clip-rule="evenodd" d="M848.002 118.318L848.496 53.5024H787.017C782.395 53.5024 778.222 56.27 776.423 60.5281C773.141 68.2986 771.5 76.7887 771.5 86.0024C771.5 95.2064 773.138 103.688 776.413 111.452C778.215 115.723 782.404 118.495 787.04 118.483L848.002 118.318Z" fill="#341F16" stroke="#341F16"/>
<path fill-rule="evenodd" clip-rule="evenodd" d="M848.5 118.002C851.814 118.002 854 104.452 854 86.5024C854 68.5532 851.314 54.0024 848 54.0024C844.686 54.0024 843 68.5532 843 86.5024C843 104.452 845.186 118.002 848.5 118.002Z" fill="white"/>
<path d="M619.101 77.5714C618.031 79.5561 615.938 80.9041 613.532 80.9041C610.036 80.9041 607.203 78.06 607.203 74.5516V62.3549C607.203 58.8465 610.036 56.0024 613.532 56.0024C615.938 56.0024 618.031 57.3504 619.101 59.3351C620.172 57.3504 622.264 56.0024 624.671 56.0024C628.166 56.0024 631 58.8465 631 62.3549V74.5516C631 78.06 628.166 80.9041 624.671 80.9041C622.264 80.9041 620.172 79.5561 619.101 77.5714ZM618.342 74.5516V62.3549C618.342 59.6885 616.188 57.527 613.532 57.527C610.875 57.527 608.721 59.6885 608.721 62.3549V74.5516C608.721 77.218 610.875 79.3795 613.532 79.3795C616.188 79.3795 618.342 77.218 618.342 74.5516ZM619.861 74.5516C619.861 77.218 622.014 79.3795 624.671 79.3795C627.327 79.3795 629.481 77.218 629.481 74.5516V62.3549C629.481 59.6885 627.327 57.527 624.671 57.527C622.014 57.527 619.861 59.6885 619.861 62.3549V74.5516ZM597.329 62.1008C600.825 62.1008 603.658 64.9449 603.658 68.4533V80.65C603.658 84.1583 600.825 87.0024 597.329 87.0024C593.834 87.0024 591 84.1583 591 80.65V68.4533C591 64.9449 593.834 62.1008 597.329 62.1008ZM597.329 63.6254C594.673 63.6254 592.519 65.7869 592.519 68.4533V80.65C592.519 83.3163 594.673 85.4779 597.329 85.4779C599.986 85.4779 602.139 83.3163 602.139 80.65V68.4533C602.139 65.7869 599.986 63.6254 597.329 63.6254Z" fill="#341F16"/>
<path d="M598.519 118.407C598.598 118.756 598.901 119.002 599.25 119.002H629.25C629.689 119.002 630.034 118.618 629.997 118.17L628.997 105.878C628.963 105.455 628.6 105.141 628.188 105.176C627.775 105.211 627.468 105.582 627.503 106.005L628.435 117.466H599.847L596.981 104.744C596.902 104.396 596.599 104.149 596.25 104.149H585.241C582.973 104.149 580.962 102.658 580.254 100.451C579.853 99.204 579.576 98.5299 579.28 98.2275C578.987 97.9274 578.513 97.9274 578.22 98.2275C577.927 98.5275 577.927 99.014 578.22 99.314C578.271 99.367 578.521 99.9732 578.829 100.931C579.74 103.768 582.326 105.685 585.241 105.685H595.653L598.519 118.407Z" fill="#341F16"/>
<path d="M848.5 119.002C852.428 119.002 855 104.503 855 86.0024C855 67.5016 852.428 53.0024 848.5 53.0024C844.572 53.0024 842 67.5016 842 86.0024C842 104.503 844.572 119.002 848.5 119.002ZM848.5 117.491C846.11 117.491 843.56 103.118 843.56 86.0024C843.56 68.8873 846.11 54.5139 848.5 54.5139C850.89 54.5139 853.44 68.8873 853.44 86.0024C853.44 103.118 850.89 117.491 848.5 117.491Z" fill="#341F16"/>
<path fill-rule="evenodd" clip-rule="evenodd" d="M839 58.213L843 46.0024L846 57.7042L863 62.7919L846 64.827L840 75.0024L838.781 67.5405L837 65.8445L819 60.2481L839 58.213Z" fill="white"/>
<path d="M842.601 45.5078C842.859 44.7822 843.904 44.8566 844.058 45.6116L846.53 57.7414L863.43 62.0929C864.244 62.3025 864.164 63.4899 863.329 63.5877L846.367 65.573L840.586 76.5955C840.256 77.2253 839.322 77.0963 839.174 76.4002L837.098 66.6828L818.542 61.123C817.746 60.8844 817.856 59.7184 818.682 59.6348L838.278 57.6513L842.601 45.5078ZM838.754 57.6031L838.116 58.1045L838.278 57.6513L838.754 57.6031ZM839.544 58.6178C839.445 58.8946 839.197 59.0897 838.906 59.1192L822.652 60.7644L837.962 65.3515C838.227 65.4311 838.428 65.6497 838.486 65.9218L840.218 74.0283L845.212 64.5074C845.328 64.2851 845.546 64.1349 845.795 64.1058L859.094 62.5493L845.694 59.0992C845.413 59.0268 845.198 58.7996 845.14 58.514L843.116 48.5853L839.544 58.6178Z" fill="#341F16"/>
</svg>
